<mxfile host="app.diagrams.net" modified="2022-05-18T23:02:08.607Z" agent="5.0 (Windows NT 10.0; Win64; x64) AppleWebKit/537.36 (KHTML, like Gecko) Chrome/101.0.4951.41 Safari/537.36" etag="76q-Pl9Yqu7ezPqUwFh9" version="18.0.7" type="github">
  <diagram id="H5baohoSHwZTzqN631xm" name="Page-1">
    <mxGraphModel dx="1688" dy="939" grid="1" gridSize="10" guides="1" tooltips="1" connect="1" arrows="1" fold="1" page="1" pageScale="1" pageWidth="827" pageHeight="1169" math="0" shadow="0">
      <root>
        <mxCell id="0" />
        <mxCell id="1" parent="0" />
        <mxCell id="Upgvmm6v0kQh1JYQ9vXC-30" value="" style="edgeStyle=orthogonalEdgeStyle;rounded=0;orthogonalLoop=1;jettySize=auto;html=1;" edge="1" parent="1" source="Upgvmm6v0kQh1JYQ9vXC-1">
          <mxGeometry relative="1" as="geometry">
            <mxPoint x="405" y="100" as="targetPoint" />
          </mxGeometry>
        </mxCell>
        <mxCell id="Upgvmm6v0kQh1JYQ9vXC-1" value="Inicio" style="ellipse;whiteSpace=wrap;html=1;" vertex="1" parent="1">
          <mxGeometry x="360" y="10" width="90" height="50" as="geometry" />
        </mxCell>
        <mxCell id="Upgvmm6v0kQh1JYQ9vXC-15" value="" style="edgeStyle=orthogonalEdgeStyle;rounded=0;orthogonalLoop=1;jettySize=auto;html=1;" edge="1" parent="1" target="Upgvmm6v0kQh1JYQ9vXC-14">
          <mxGeometry relative="1" as="geometry">
            <mxPoint x="405" y="156" as="sourcePoint" />
          </mxGeometry>
        </mxCell>
        <mxCell id="Upgvmm6v0kQh1JYQ9vXC-21" style="edgeStyle=orthogonalEdgeStyle;rounded=0;orthogonalLoop=1;jettySize=auto;html=1;" edge="1" parent="1" source="Upgvmm6v0kQh1JYQ9vXC-14">
          <mxGeometry relative="1" as="geometry">
            <mxPoint x="405" y="366" as="targetPoint" />
          </mxGeometry>
        </mxCell>
        <mxCell id="Upgvmm6v0kQh1JYQ9vXC-14" value="MIENTRAS TEMP!=1000" style="rounded=0;whiteSpace=wrap;html=1;fontFamily=Helvetica;fontSize=12;fontColor=default;align=center;strokeColor=default;fillColor=default;" vertex="1" parent="1">
          <mxGeometry x="310" y="240" width="172" height="60" as="geometry" />
        </mxCell>
        <mxCell id="Upgvmm6v0kQh1JYQ9vXC-17" value="INGRESA LA&lt;br&gt;TEMPERATURA" style="shape=document;whiteSpace=wrap;html=1;boundedLbl=1;size=0.16666666666666666;" vertex="1" parent="1">
          <mxGeometry x="347.5" y="100" width="115" height="60" as="geometry" />
        </mxCell>
        <mxCell id="Upgvmm6v0kQh1JYQ9vXC-18" value="TEMP" style="shape=parallelogram;perimeter=parallelogramPerimeter;whiteSpace=wrap;html=1;fixedSize=1;" vertex="1" parent="1">
          <mxGeometry x="340.5" y="176" width="128" height="40" as="geometry" />
        </mxCell>
        <mxCell id="Upgvmm6v0kQh1JYQ9vXC-34" value="" style="edgeStyle=orthogonalEdgeStyle;rounded=0;orthogonalLoop=1;jettySize=auto;html=1;" edge="1" parent="1" source="Upgvmm6v0kQh1JYQ9vXC-32" target="Upgvmm6v0kQh1JYQ9vXC-33">
          <mxGeometry relative="1" as="geometry" />
        </mxCell>
        <mxCell id="Upgvmm6v0kQh1JYQ9vXC-32" value="&lt;br&gt;cont++" style="shape=parallelogram;perimeter=parallelogramPerimeter;whiteSpace=wrap;html=1;fixedSize=1;" vertex="1" parent="1">
          <mxGeometry x="351.25" y="366" width="107.5" height="40" as="geometry" />
        </mxCell>
        <mxCell id="Upgvmm6v0kQh1JYQ9vXC-36" value="(True)" style="edgeStyle=orthogonalEdgeStyle;rounded=0;orthogonalLoop=1;jettySize=auto;html=1;entryX=0;entryY=0.5;entryDx=0;entryDy=0;" edge="1" parent="1" source="Upgvmm6v0kQh1JYQ9vXC-33" target="Upgvmm6v0kQh1JYQ9vXC-77">
          <mxGeometry relative="1" as="geometry">
            <mxPoint x="574" y="480" as="targetPoint" />
            <Array as="points" />
          </mxGeometry>
        </mxCell>
        <mxCell id="Upgvmm6v0kQh1JYQ9vXC-41" value="" style="edgeStyle=orthogonalEdgeStyle;rounded=0;orthogonalLoop=1;jettySize=auto;html=1;" edge="1" parent="1" source="Upgvmm6v0kQh1JYQ9vXC-33" target="Upgvmm6v0kQh1JYQ9vXC-40">
          <mxGeometry relative="1" as="geometry" />
        </mxCell>
        <mxCell id="Upgvmm6v0kQh1JYQ9vXC-33" value="cont==1" style="rhombus;whiteSpace=wrap;html=1;" vertex="1" parent="1">
          <mxGeometry x="410" y="440" width="115" height="80" as="geometry" />
        </mxCell>
        <mxCell id="Upgvmm6v0kQh1JYQ9vXC-49" style="edgeStyle=orthogonalEdgeStyle;rounded=0;orthogonalLoop=1;jettySize=auto;html=1;" edge="1" parent="1">
          <mxGeometry relative="1" as="geometry">
            <mxPoint x="630" y="740" as="targetPoint" />
            <mxPoint x="630" y="515" as="sourcePoint" />
          </mxGeometry>
        </mxCell>
        <mxCell id="Upgvmm6v0kQh1JYQ9vXC-44" style="edgeStyle=orthogonalEdgeStyle;rounded=0;orthogonalLoop=1;jettySize=auto;html=1;" edge="1" parent="1" source="Upgvmm6v0kQh1JYQ9vXC-40">
          <mxGeometry relative="1" as="geometry">
            <mxPoint x="190" y="480" as="targetPoint" />
          </mxGeometry>
        </mxCell>
        <mxCell id="Upgvmm6v0kQh1JYQ9vXC-76" value="True" style="edgeStyle=orthogonalEdgeStyle;rounded=0;orthogonalLoop=1;jettySize=auto;html=1;entryX=0;entryY=0.617;entryDx=0;entryDy=0;entryPerimeter=0;" edge="1" parent="1" source="Upgvmm6v0kQh1JYQ9vXC-40" target="Upgvmm6v0kQh1JYQ9vXC-75">
          <mxGeometry relative="1" as="geometry" />
        </mxCell>
        <mxCell id="Upgvmm6v0kQh1JYQ9vXC-40" value="TempMax&amp;lt;TEMP" style="rhombus;whiteSpace=wrap;html=1;" vertex="1" parent="1">
          <mxGeometry x="230" y="445" width="138.5" height="70" as="geometry" />
        </mxCell>
        <mxCell id="Upgvmm6v0kQh1JYQ9vXC-50" style="edgeStyle=orthogonalEdgeStyle;rounded=0;orthogonalLoop=1;jettySize=auto;html=1;" edge="1" parent="1">
          <mxGeometry relative="1" as="geometry">
            <mxPoint x="385" y="740" as="targetPoint" />
            <mxPoint x="384.70000000000005" y="610" as="sourcePoint" />
          </mxGeometry>
        </mxCell>
        <mxCell id="Upgvmm6v0kQh1JYQ9vXC-47" value="" style="edgeStyle=orthogonalEdgeStyle;rounded=0;orthogonalLoop=1;jettySize=auto;html=1;" edge="1" parent="1" source="Upgvmm6v0kQh1JYQ9vXC-45">
          <mxGeometry relative="1" as="geometry">
            <mxPoint x="135.5" y="560" as="targetPoint" />
          </mxGeometry>
        </mxCell>
        <mxCell id="Upgvmm6v0kQh1JYQ9vXC-66" style="edgeStyle=orthogonalEdgeStyle;rounded=0;orthogonalLoop=1;jettySize=auto;html=1;" edge="1" parent="1" source="Upgvmm6v0kQh1JYQ9vXC-45">
          <mxGeometry relative="1" as="geometry">
            <mxPoint x="20" y="481" as="targetPoint" />
          </mxGeometry>
        </mxCell>
        <mxCell id="Upgvmm6v0kQh1JYQ9vXC-45" value="TempMin&amp;gt;TEMP" style="rhombus;whiteSpace=wrap;html=1;" vertex="1" parent="1">
          <mxGeometry x="71" y="448" width="120" height="65" as="geometry" />
        </mxCell>
        <mxCell id="Upgvmm6v0kQh1JYQ9vXC-51" style="edgeStyle=orthogonalEdgeStyle;rounded=0;orthogonalLoop=1;jettySize=auto;html=1;startArrow=none;" edge="1" parent="1">
          <mxGeometry relative="1" as="geometry">
            <mxPoint x="136" y="740" as="targetPoint" />
            <mxPoint x="135.5" y="720" as="sourcePoint" />
          </mxGeometry>
        </mxCell>
        <mxCell id="Upgvmm6v0kQh1JYQ9vXC-72" value="" style="edgeStyle=orthogonalEdgeStyle;rounded=0;orthogonalLoop=1;jettySize=auto;html=1;" edge="1" parent="1" target="Upgvmm6v0kQh1JYQ9vXC-71">
          <mxGeometry relative="1" as="geometry">
            <mxPoint x="135.5" y="620" as="sourcePoint" />
          </mxGeometry>
        </mxCell>
        <mxCell id="Upgvmm6v0kQh1JYQ9vXC-55" value="" style="endArrow=none;html=1;rounded=0;" edge="1" parent="1">
          <mxGeometry width="50" height="50" relative="1" as="geometry">
            <mxPoint x="21" y="740" as="sourcePoint" />
            <mxPoint x="30" y="120" as="targetPoint" />
          </mxGeometry>
        </mxCell>
        <mxCell id="Upgvmm6v0kQh1JYQ9vXC-58" value="" style="endArrow=classic;html=1;rounded=0;entryX=-0.03;entryY=0.367;entryDx=0;entryDy=0;entryPerimeter=0;" edge="1" parent="1" target="Upgvmm6v0kQh1JYQ9vXC-17">
          <mxGeometry width="50" height="50" relative="1" as="geometry">
            <mxPoint x="30" y="120" as="sourcePoint" />
            <mxPoint x="120" y="130" as="targetPoint" />
          </mxGeometry>
        </mxCell>
        <mxCell id="Upgvmm6v0kQh1JYQ9vXC-60" value="" style="endArrow=classic;html=1;rounded=0;" edge="1" parent="1">
          <mxGeometry width="50" height="50" relative="1" as="geometry">
            <mxPoint x="640" y="740" as="sourcePoint" />
            <mxPoint x="20" y="740" as="targetPoint" />
          </mxGeometry>
        </mxCell>
        <mxCell id="Upgvmm6v0kQh1JYQ9vXC-61" value="" style="endArrow=classic;html=1;rounded=0;exitX=1;exitY=0.5;exitDx=0;exitDy=0;" edge="1" parent="1" source="Upgvmm6v0kQh1JYQ9vXC-14">
          <mxGeometry width="50" height="50" relative="1" as="geometry">
            <mxPoint x="460" y="310" as="sourcePoint" />
            <mxPoint x="780" y="270" as="targetPoint" />
          </mxGeometry>
        </mxCell>
        <mxCell id="Upgvmm6v0kQh1JYQ9vXC-67" value="La temperatura maxima y minima nueva es = TEMP" style="shape=document;whiteSpace=wrap;html=1;boundedLbl=1;" vertex="1" parent="1">
          <mxGeometry x="570" y="560" width="120" height="80" as="geometry" />
        </mxCell>
        <mxCell id="Upgvmm6v0kQh1JYQ9vXC-68" value="La maxima temp. nueva es= TEMP" style="shape=document;whiteSpace=wrap;html=1;boundedLbl=1;" vertex="1" parent="1">
          <mxGeometry x="347.5" y="630" width="90.75" height="60" as="geometry" />
        </mxCell>
        <mxCell id="Upgvmm6v0kQh1JYQ9vXC-71" value="&lt;br&gt;&lt;span style=&quot;color: rgb(0, 0, 0); font-family: Helvetica; font-size: 12px; font-style: normal; font-variant-ligatures: normal; font-variant-caps: normal; font-weight: 400; letter-spacing: normal; orphans: 2; text-align: center; text-indent: 0px; text-transform: none; widows: 2; word-spacing: 0px; -webkit-text-stroke-width: 0px; background-color: rgb(248, 249, 250); text-decoration-thickness: initial; text-decoration-style: initial; text-decoration-color: initial; float: none; display: inline !important;&quot;&gt;La minima temp. nueva es= TEMP&lt;/span&gt;" style="shape=document;whiteSpace=wrap;html=1;boundedLbl=1;" vertex="1" parent="1">
          <mxGeometry x="93.25" y="650" width="96.75" height="70" as="geometry" />
        </mxCell>
        <mxCell id="Upgvmm6v0kQh1JYQ9vXC-73" value="Fin" style="ellipse;whiteSpace=wrap;html=1;" vertex="1" parent="1">
          <mxGeometry x="492.47" y="934" width="70.75" height="40" as="geometry" />
        </mxCell>
        <mxCell id="Upgvmm6v0kQh1JYQ9vXC-74" value="TempMin= TEMP" style="rounded=0;whiteSpace=wrap;html=1;" vertex="1" parent="1">
          <mxGeometry x="71" y="560" width="120" height="60" as="geometry" />
        </mxCell>
        <mxCell id="Upgvmm6v0kQh1JYQ9vXC-75" value="TempMax=TEMP" style="rounded=0;whiteSpace=wrap;html=1;" vertex="1" parent="1">
          <mxGeometry x="325" y="550" width="120" height="60" as="geometry" />
        </mxCell>
        <mxCell id="Upgvmm6v0kQh1JYQ9vXC-77" value="TempMax=TEMP&lt;br&gt;TempMin= TEMP" style="rounded=0;whiteSpace=wrap;html=1;" vertex="1" parent="1">
          <mxGeometry x="585" y="460" width="120" height="60" as="geometry" />
        </mxCell>
        <mxCell id="Upgvmm6v0kQh1JYQ9vXC-80" value="" style="edgeStyle=orthogonalEdgeStyle;rounded=0;orthogonalLoop=1;jettySize=auto;html=1;" edge="1" parent="1" source="Upgvmm6v0kQh1JYQ9vXC-79" target="Upgvmm6v0kQh1JYQ9vXC-73">
          <mxGeometry relative="1" as="geometry" />
        </mxCell>
        <mxCell id="Upgvmm6v0kQh1JYQ9vXC-79" value="La temperatura minima es = TempMin&lt;br&gt;&lt;br&gt;La temperatura maxima es = TempMax" style="shape=document;whiteSpace=wrap;html=1;boundedLbl=1;" vertex="1" parent="1">
          <mxGeometry x="252.47000000000003" y="790" width="240" height="80" as="geometry" />
        </mxCell>
        <mxCell id="Upgvmm6v0kQh1JYQ9vXC-88" style="edgeStyle=orthogonalEdgeStyle;rounded=0;orthogonalLoop=1;jettySize=auto;html=1;exitX=0;exitY=0.5;exitDx=0;exitDy=0;entryX=1;entryY=0.5;entryDx=0;entryDy=0;" edge="1" parent="1" source="Upgvmm6v0kQh1JYQ9vXC-82" target="Upgvmm6v0kQh1JYQ9vXC-79">
          <mxGeometry relative="1" as="geometry" />
        </mxCell>
        <mxCell id="Upgvmm6v0kQh1JYQ9vXC-89" style="edgeStyle=orthogonalEdgeStyle;rounded=0;orthogonalLoop=1;jettySize=auto;html=1;entryX=1.008;entryY=0.763;entryDx=0;entryDy=0;entryPerimeter=0;" edge="1" parent="1" source="Upgvmm6v0kQh1JYQ9vXC-82" target="Upgvmm6v0kQh1JYQ9vXC-73">
          <mxGeometry relative="1" as="geometry" />
        </mxCell>
        <mxCell id="Upgvmm6v0kQh1JYQ9vXC-82" value="cont==1" style="rhombus;whiteSpace=wrap;html=1;" vertex="1" parent="1">
          <mxGeometry x="520" y="790" width="115" height="80" as="geometry" />
        </mxCell>
        <mxCell id="Upgvmm6v0kQh1JYQ9vXC-86" value="" style="endArrow=classic;html=1;rounded=0;" edge="1" parent="1">
          <mxGeometry width="50" height="50" relative="1" as="geometry">
            <mxPoint x="780" y="270" as="sourcePoint" />
            <mxPoint x="770" y="840" as="targetPoint" />
          </mxGeometry>
        </mxCell>
        <mxCell id="Upgvmm6v0kQh1JYQ9vXC-87" value="" style="endArrow=classic;html=1;rounded=0;entryX=1;entryY=0.5;entryDx=0;entryDy=0;" edge="1" parent="1" target="Upgvmm6v0kQh1JYQ9vXC-82">
          <mxGeometry width="50" height="50" relative="1" as="geometry">
            <mxPoint x="770" y="840" as="sourcePoint" />
            <mxPoint x="390" y="560" as="targetPoint" />
          </mxGeometry>
        </mxCell>
      </root>
    </mxGraphModel>
  </diagram>
</mxfile>
